<svg version="1.2" xmlns="http://www.w3.org/2000/svg" viewBox="0 0 996 249" width="996" height="249">
	<title>dogebys-white-transparent-1000 (1) (2)-svg</title>
	<style>
		.s0 { fill: #ffffff } 
		.s1 { opacity: 1;fill: #ffffff } 
	</style>
	<g id="Layer 1">
		<path id="Path 0" fill-rule="evenodd" class="s0" d="m606.5 69.5c0.6 0.1 1.2 8.1 2 40.7l2.5-2c1.4-1.1 4.8-3 7.5-4.3 3.2-1.4 7-2.2 10.5-2.2 3.8-0.1 7 0.7 10.5 2.4 3.4 1.7 5.8 3.8 7.7 6.9 1.6 2.5 3.3 6.3 3.9 8.5 0.6 2.2 1 7.4 1 11.5 0 4.1-0.7 9.7-1.6 12.5-0.9 2.7-3.1 7-4.9 9.5-2.1 3-5.4 5.7-9.7 8-6 3.3-6.9 3.5-15.9 3.5-8.8 0-10.1-0.3-22.5-6.5l-3 3.5c-1.6 1.9-3.6 3.5-4.3 3.5-0.9 0-1.2-9.1-1.2-84l-3.8-0.8c-2.7-0.6-3.7-1.3-3.7-2.7 0-1.5 2-2.4 12-5 6.6-1.8 12.5-3.1 13-3zm1.2 44.7c0.3 35.4 0.5 37.6 2.3 40.5 1.1 1.8 3 3.8 4.3 4.4 1.2 0.7 3.9 0.9 6.2 0.5 2.2-0.3 5-1.6 6.3-2.8 1.2-1.3 2.9-4.3 3.7-6.8 0.9-2.6 1.5-8.1 1.5-13 0-4.7-0.7-10.9-1.5-13.8-0.8-2.8-2.7-6.6-4.3-8.3-2.1-2.3-3.8-3.2-7.2-3.5-3-0.3-5.7 0.1-7.9 1.2zm-309.2-38.3l33 83.1h4.7c4.1-0.1 4.8 0.2 4.8 1.9 0 2-0.7 2-23 2-22.3 0-23 0-23-2 0-1.8 0.7-2 14.7-2.5l-11.4-29-27.8-0.6-4.4 11.3c-2.4 6.3-4.6 11.9-4.8 12.6-0.2 0.7 2.2 2.6 5.2 4.2 3 1.7 5.5 3.7 5.5 4.5 0 1.3-2.3 1.5-14.5 1.5-13.8 0-14.5 0-14.5-2 0-1.7 0.7-2 10.4-2.5l28.2-72-3.8-4.2c-2.1-2.3-3.6-4.7-3.3-5.3 0.4-0.5 5.5-1 24-1zm-21.4 35.3l-5.1 12.7c22.9 0 23.9-0.1 23.5-1.7-0.3-1-2.9-7.8-5.9-15.3-4.9-12.1-5.5-13.2-6.4-11-0.6 1.4-3.3 8.3-6.1 15.3zm580.9-8.3c19.3 0 20 0.1 20 2 0 1.8-0.8 2.1-10.8 2.5l14.3 35.4 7-16c5.9-13.5 6.8-16.2 5.5-17-0.8-0.5-2.8-1.7-4.3-2.6-1.5-1-2.7-2.3-2.7-3 0-0.9 3-1.3 11.5-1.3 10.8 0 11.5 0.2 11.5 2 0 1.7-0.7 2-7.5 2l-12.4 27.8c-6.7 15.2-14.7 31.8-17.6 36.7-2.9 5-7.8 11.9-10.9 15.3-3.1 3.4-6.1 6.2-6.6 6.2-0.6 0-3-2.4-5.5-5.5-2.5-3-4.5-6-4.5-6.7 0.1-0.7 2.9-2.6 6.3-4.3 3.3-1.6 8.6-4.8 11.7-7.1 3-2.2 7-6 12.1-12.9l-8.3-1-21.3-48.5h-3.8c-3 0-3.7-0.3-3.7-2 0-1.9 0.7-2 20-2zm-295.5-28.5c2.9 0.3 4.8 1.3 6.7 3.5 2.1 2.2 2.8 4.1 2.8 7 0 3.1-0.7 4.8-2.9 7.3-2.6 2.9-3.6 3.2-8.1 3.2-4.6 0-5.5-0.3-8.1-3.2-2.1-2.4-2.9-4.3-2.9-7-0.1-2.3 0.7-4.9 2-6.6 1.1-1.5 3.1-3.2 4.3-3.7 1.2-0.5 4-0.7 6.2-0.5zm-187 1.5l13 24.5c11.4 21.5 13.1 24.3 14.3 22.8 0.7-1 6.7-12 25.7-47.3h11.2c10.6 0 11.3 0.2 11.3 2 0 1.7-0.7 2-8 2v4.8c0 2.6 0.9 19.1 2 36.7 1.1 17.6 2 33.3 2 34.8 0 2.7 0.2 2.7 5.5 2.7 4.8 0 5.5 0.3 5.5 2 0 2-0.7 2-21 2-20.3 0-21 0-21-2 0-1.7 0.7-2 11.5-1.9l-0.7-7.3c-0.4-4-1.3-17.4-1.9-29.8-0.7-12.3-1.5-22.8-1.8-23.2-0.3-0.4-6.9 10.8-14.6 24.8-8.8 15.9-14.6 25.4-15.5 25.4-0.9 0-4.6-5.9-9.3-14.7-4.3-8.1-10.6-20.2-20.5-38.8l-1.1 21.5c-0.7 11.9-1.5 26.2-2.6 42.1l6.2-0.1c5.6 0 6.3 0.3 6.3 2 0 1.9-0.7 2-14 2-11.8 0-14-0.2-14-1.5 0-0.8 2.5-2.8 11-7.5l0.5-6.2c0.3-3.4 1.2-18.4 3.5-60.3l-3.9-5c-2.2-2.7-3.8-5.3-3.5-5.7 0.3-0.4 5.8-0.8 23.9-0.8zm109.5 0c23.3 0 24 0.1 24 2 0 1.9-0.7 2-17 2v79h25.5l8.7-13.5c4.9-7.4 9.5-13.5 10.3-13.5 0.8 0 1.5 0.6 1.5 1.3 0 0.7-0.8 7.7-3.5 29.8l-36.8-0.1c-32 0-36.7-0.2-36.7-1.5 0-0.8 2.2-2.7 10-7v-74.5h-5c-4.3 0-5-0.2-5-2 0-1.9 0.7-2 24-2zm84.5 25.4c1.9 0.1 2 1 2.5 57.6h4c3.3 0 4 0.4 4 2 0 2-0.7 2-18 2-15.3 0-18-0.2-18-1.5 0-0.8 1.8-2.5 8-6v-42.5l-4-1.2c-2.4-0.7-4.1-1.9-4.2-2.9-0.2-1.3 2.3-2.3 11.7-4.7 6.6-1.6 12.9-2.9 14-2.8zm113 0.1c0.5 0.1 1.3 1.3 1.6 2.6 0.4 1.4 0.7 4.1 0.9 9.9l3.7-4.1c2.1-2.2 5.6-5 7.8-6.1 2.2-1.1 6.2-2.2 9-2.4 2.7-0.3 5.5-0.1 6.1 0.3 0.9 0.6 0.7 3-0.5 9.1-1.1 5.9-2 8.3-3.1 8.3-0.8 0-2.4-0.9-3.5-2.1-1.1-1.1-3.6-2.5-5.5-3-2.9-0.8-4.3-0.5-12.5 3.5l-0.5 41.5h8c7.3 0 8 0.2 8 2 0 2-0.7 2-22 2-18.9 0-22-0.2-22-1.5 0-0.8 2-2.6 9-6.5v-42l-3.5-0.5c-1.9-0.2-3.9-1.1-4.3-2-0.4-0.8-0.5-1.7-0.2-2 0.3-0.2 5.4-2 11.5-3.9 6-1.8 11.4-3.3 12-3.1zm69.5 0.1c4.1 0.3 7.9 1.3 10.3 2.7 2.4 1.4 4.6 3.9 6 6.7 2 4.2 2.2 6.3 2.7 48h3.5c2.4 0 3.5 0.5 3.5 1.5 0 0.9-1.5 2-3.3 2.6-1.8 0.5-6.3 1-10 1-5.8-0.1-7-0.4-9.2-2.6-1.4-1.3-2.5-3.1-2.5-4 0-0.8-0.1-1.5-0.3-1.5-0.1 0-2.9 1.6-6.2 3.5-3.3 2-8.2 4-10.8 4.5-2.6 0.6-6 1-7.5 1-1.5 0-4.4-0.5-6.5-1.2-2.2-0.7-5.1-2.5-6.5-4.1-2.1-2.1-2.8-4.1-3.1-8-0.2-4.1 0.2-5.8 2.1-8.7 1.3-1.9 4.6-4.7 7.3-6.2 2.8-1.4 8.6-3.5 13-4.6 4.4-1.1 9.9-2.2 16.5-3.2v-5.7c0-3.2-0.6-6.9-1.3-8.3-0.7-1.3-2.8-3-4.7-3.6-2.5-0.9-5.5-0.9-10.3-0.3-3.7 0.5-9 1.8-11.7 2.9-4.3 1.8-5.1 1.8-5.5 0.5-0.3-0.8-0.1-2 0.4-2.7 0.5-0.7 3.9-2.7 7.7-4.5 3.8-1.8 9.8-3.9 13.4-4.7 4-0.9 9-1.3 13-1zm-16.7 37.9c-2.6 2.5-3.2 3.8-3.3 7 0 2.2 0.3 4.5 0.8 5.1 0.4 0.6 1.7 1.7 2.9 2.3 1.3 0.6 3.6 1.1 5.3 1.1 1.6 0 4.6-0.6 6.5-1.5l3.5-1.5c0-16.4-0.3-18.9-1.3-18.9-0.7 0.1-3.4 0.9-6.2 1.8-2.7 0.9-6.4 3-8.2 4.6zm70.2-38.1c0.5 0.2 1.1 1.8 1.3 3.7 0.1 1.9 0.4 4.3 0.7 5.4 0.4 1.8 0.9 1.6 5-2.2q4.5-4.3 9.7-5.8c2.9-0.8 6.4-1.5 7.8-1.5 1.4 0.1 3.2 0.5 4 1 1.3 0.8 1.3 1.7 0.2 7.2-0.7 3.5-1.5 7.1-1.8 8.1-0.2 1-0.9 1.7-1.4 1.7-0.6 0-2.5-1.1-4.3-2.5-2.3-1.7-4.5-2.5-7.7-2.5-3-0.1-5.3 0.5-9.5 3.8l-0.5 41.2h7.5c6.8 0 7.5 0.2 7.5 2 0 2-0.7 2-21.5 2-18.5 0-21.5-0.2-21.5-1.5 0-0.8 1.8-2.5 8-6v-42l-3.2-1c-2.2-0.7-3.3-1.7-3.3-2.9 0-1.5 2.1-2.5 11-5.1 6-1.8 11.4-3.2 12-3.1z"/>
		<g id="img1">
			<path id="Path 0" fill-rule="evenodd" class="s1" d="m114.5 22.1c3.8-0.1 7.5 0.3 8 0.8 0.5 0.5 1.7 1.1 2.6 1.3 1.3 0.2 1.5 0.8 0.8 2.8-0.9 2.5-1 2.5-2.4 0.5-1.2-1.7-1.7-1.8-3.4-0.8-1.2 0.8-2.1 0.9-2.1 0.3 0-0.6-1.3-1-3-1-1.7 0-3 0.4-3 1q0 1-2 0c-1.4-0.7-2.2-0.6-2.6 0.2-0.5 1-0.9 0.8-1.5-0.5-0.5-0.9-1.4-1.5-1.9-1.2-0.5 0.3-1 0.2-1-0.3 0-0.4 1-1.2 2.2-1.8 1.3-0.6 5.5-1.2 9.3-1.3zm24.5 10.5c4 0.2 5 0.7 8.3 4.5 2.1 2.4 5.2 7.1 6.8 10.4 1.6 3.3 3.2 7.9 3.6 10.3 0.7 3.7 0.6 4.2-1 4.2-0.9 0-1.9 0.6-2.1 1.2-0.2 0.7-0.6-0.1-1-1.7-0.4-1.7-1.2-4.8-3.1-11l-6.3-0.3c-4.2-0.1-6.9 0.3-8.5 1.3-1.2 0.8-3 1.3-4 1-0.9-0.3-1.7-1-1.7-1.5 0-0.5 1.1-1.2 2.5-1.5q2.5-0.5 2.5-2.5c0-1.3 0.8-2.2 2.2-2.5 1.3-0.2 3.6-0.6 8.3-1l-4-4.2c-2.2-2.3-4.6-4.2-5.3-4.3-0.6 0-1.8 1.8-2.5 4-0.6 2.2-1.5 4-2 4-0.4 0-1.4-0.2-2.2-0.5-0.8-0.3-1.5-1.4-1.5-2.5 0-1.1 0.4-2 1-2 0.6 0 0.7-0.8 0.4-1.8-0.4-1.2 0.3-2 2.3-2.7 1.5-0.6 4.8-1 7.3-0.9zm-33.5 5.4c1.4 0 2.4 0.5 2.2 1-0.1 0.5-0.5 1-1 1-0.4 0-1.4 0-2.2 0-0.8 0-1.5-0.5-1.5-1 0-0.5 1.1-1 2.5-1zm-21.9 1.7c0.7 0.3 1.3 0.8 1.4 1.2 0 0.3-0.4 1.1-1 1.6-0.8 0.7-0.5 2 0.9 4.5 1 1.9 2.7 6.4 3.7 10 0.9 3.6 2.3 7.7 3.1 9.2 0.7 1.6 2.2 3.3 3.3 3.8 1.1 0.5 2.4 1 3 1 0.6 0 0.8-1.9 0.4-4.8-0.3-2.9 0-5.7 0.8-7.5 0.7-1.5 1.5-2.7 1.8-2.7 0.3 0 1 0.8 1.7 1.8 0.6 0.9 0.9 2.8 0.7 4.2-0.3 1.4-0.1 3.6 0.4 5 0.5 1.5 0.6 3.7 0.1 5.2-0.6 1.9-1.8 3-3.7 3.4-1.5 0.3-3.8 0.3-5.2-0.1-1.4-0.4-3.7-1.9-5.1-3.4-1.4-1.4-3.4-5.3-4.4-8.6-0.9-3.3-2.2-7.5-2.9-9.4-0.6-1.9-1.7-3.6-2.4-3.8-0.6-0.1-2 1.4-2.9 3.4-1.1 2.7-1.6 6.5-1.6 12.8 0 6 0.5 10.4 1.6 13.2 1.5 3.8 1.5 4.3 0.2 4.3-0.8 0-2.5-0.9-3.8-2-2.2-2-2.2-2 1.8-4.8l-2-2.3c-1.4-1.5-1.6-2.3-0.8-2.5 0.9-0.3 0.7-1-0.7-2.4-1.6-1.6-1.9-2.8-1.4-6.8 0.3-2.6 1.2-7 2.1-9.7 0.8-2.8 2.3-6.5 3.4-8.3 1.4-2.3 2.4-3.1 3.9-2.7 1.1 0.3 2.2 0 2.5-0.5 0.3-0.5-0.5-1-1.8-1.1-2 0-2-0.1-0.3-0.8 1-0.5 2.5-0.6 3.2-0.4zm50.1 22.4c1.8-0.1 4 0.2 4.9 0.6 0.9 0.5 2.3 2 3 3.5 0.8 1.6 1.4 3.7 1.4 4.8 0 1.1-2 5.8-4.5 10.5-2.5 4.7-4.5 9.4-4.5 10.5 0 1.1 0.4 2.9 1 4 0.6 1.1 1.7 2 2.5 2 0.8 0 3.6-2.4 6.1-5.3 2.5-2.8 5.6-7.3 6.7-10 1.7-3.6 2.7-4.7 4.4-4.7 1.4 0 2.3 0.6 2.3 1.5 0 0.8-1.4 4.1-3.1 7.2-1.6 3.2-4.9 7.8-7.2 10.2-2.3 2.3-5.8 5.3-7.7 6.5-1.9 1.2-6 3.2-9 4.4-3 1.3-8.7 2.5-12.5 2.9-4.9 0.4-8.9 0.1-13.5-1.1-3.6-0.9-8.8-3-11.5-4.5-3.3-1.8-5.1-3.6-5.3-5-0.1-1.5 0.3-2.1 1.8-2.1 1.1 0 3.7 1.1 5.7 2.5 2.1 1.4 6.2 3.2 9 4 2.9 0.8 6.9 1.5 8.8 1.5 1.9 0 3.7-0.5 4-1 0.3-0.5 0-1.2-0.5-1.5-0.6-0.3-1.5-2.2-2.1-4.3-0.6-2-2.6-5-4.5-6.7-2.6-2.2-3.6-4.1-4-7-0.4-2.2-0.1-5.9 0.5-8.3 0.6-2.3 2.3-5.3 3.8-6.7 1.4-1.4 3.2-2.5 4-2.5 0.7 0 1.4 1.2 1.5 2.6 0.2 1.4-0.3 2.9-1 3.2-0.7 0.4-1.7 2-2.3 3.7-0.5 1.7-0.9 4.3-0.9 6 0 2.2 0.9 3.7 3.5 5.8 2 1.5 3.9 4.2 4.5 6.2 0.7 2.6 2 4 5 5.5 2.2 1.1 4.7 1.8 5.5 1.5 0.8-0.3 1.5-0.6 1.5-0.7 0-0.2-0.7-2.1-1.6-4.3-0.8-2.2-1.3-4.9-1.1-6 0.3-1.1 1.5-2.3 2.6-2.8 1.2-0.4 2-1.3 1.8-2-0.1-0.6-0.7-1.4-1.4-1.7q-1.2-0.5 2.3-6c1.9-3 3.4-6.7 3.4-8.3 0-2.3-0.4-2.7-2.8-2.7-1.5 0-4.7 0.7-7.2 1.5-2.5 0.9-5.2 1.3-6 1-1.3-0.6-1.3-0.8 0.1-1.8 0.9-0.7 2-1.8 2.4-2.6 0.5-0.8 2.3-2 3.9-2.7 1.7-0.7 4.6-1.3 6.3-1.3zm-55.7 23.9c2.2 0 3.1 0.6 3.5 2 0.3 1.1 0.3 2.5 0 3-0.3 0.5-1.2 1-2 1-0.8 0-2.2-1.1-3-2.5-0.8-1.4-1.5-2.7-1.5-3 0-0.3 1.3-0.5 3-0.5zm-23.4 55c0.8 0 5.3 2.9 10.1 6.5 4.9 3.6 8 6.5 7 6.5-0.9 0-2.1 0.8-2.7 1.8-0.8 1.4-0.9 1.3-1-1 0-1.6-0.5-3-1-3.3-0.6-0.3-1-0.1-1 0.5 0 0.6-0.6 1-1.3 1-0.6 0-3.8-2-7-4.5-3.8-3-5.5-5-5.1-6 0.3-0.8 1.2-1.5 2-1.5zm119.7 0.1c1.1-0.1 1.7 0.6 1.7 1.9 0 1.3-2.1 3.6-5.7 6.3-3.5 2.6-5.8 3.7-6 3-0.2-0.7-1.3-1.3-2.5-1.3-1.8 0.1-0.8-1.1 4.2-4.9 3.6-2.7 7.3-5 8.3-5zm-135.3 8.9c1.1 0 3.1 0.5 4.4 1.2 1.5 0.8 2.3 2 2.2 3.5 0 1.2 0.2 2.3 0.7 2.3 0.4 0 0.7-0.7 0.7-1.5 0-0.8 0.3-1.5 0.8-1.5 0.4 0 7.8 3.3 16.5 7.5 8.6 4.1 16.3 7.2 17 6.8 0.8-0.4-0.3-1.9-3.3-4.5-3.7-3.1-4.2-4-3-4.8 0.8-0.5 2-1 2.5-1 0.6-0.1 8.9 5.9 18.5 13.1 9.6 7.3 18 13.2 18.5 13.2 0.6 0 8.4-5.6 17.5-12.6 9.1-6.9 16.8-12.3 17.2-11.9 0.4 0.4 1.3 0.2 2-0.4 1-0.9 1.6-0.9 2.6 0.2 1 1.2 0.5 2-2.9 4.7-2.2 1.7-3.7 3.6-3.2 4 0.4 0.5 3.2-0.3 6.1-1.7 2.8-1.4 5.6-2.6 6.2-2.6 0.6 0 1.1 1 1.3 2.3 0.2 1.8-0.7 2.6-4.8 4.5-3.4 1.5-4.7 2.6-4 3.3 0.7 0.7 2.8 0.6 7-0.6 3.3-0.9 7.2-1.4 8.8-1.1 1.5 0.4 2.7 0.2 2.7-0.4 0-0.6 0.6-0.8 1.3-0.6 0.6 0.2 2-0.1 3-0.5 1.2-0.7 1.7-0.5 1.7 0.6 0 0.8-1 1.9-2.2 2.5-1.3 0.5-13.4 4.1-27 8-13.7 3.8-25.4 7-26 7-0.7-0.1-1.8 0.5-2.4 1.2-0.8 1-0.8 2.2 0.2 4.6 0.8 1.7 1.9 3.2 2.4 3.2 0.6 0 10.8-2.5 22.8-5.5 11.9-3.1 28.9-7.4 37.7-9.7 8.8-2.2 16.4-4.3 16.8-4.7 0.4-0.3 0.3-2.7-0.3-5.3-0.5-2.7-1.1-4.8-1.2-4.8-0.2 0-2.5 0.7-5.3 1.5q-5 1.5-6.2 0.5c-0.7-0.6-1.1-1.6-0.8-2.2 0.2-0.7 3.5-2.1 7.2-3.2 5.7-1.5 7-1.6 8-0.5 0.6 0.8 2 3.8 3 6.8 1.5 4.6 2.3 5.6 4.8 6.3 1.7 0.5 4 1.8 5.3 3.1 1.3 1.3 2.2 3.4 2.2 5.2 0 2-0.9 3.9-2.7 5.7-2.2 2.1-6.4 3.5-20.8 7.2-9.9 2.5-27.2 7-38.5 9.8-17 4.3-20.9 5.6-22.8 7.7-1.2 1.5-2.3 2.3-2.2 1.9 0-0.5 0-1 0-1.3 0-0.3-0.4-2.1-1-4-0.9-3.2-0.8-3.6 1.3-4.5 1.2-0.5 17.3-4.8 35.7-9.4 18.4-4.7 35.7-9.1 38.4-9.8 2.7-0.7 5.2-1.9 5.7-2.5 0.5-0.7 0.7-1.7 0.4-2.3-0.3-0.6-1.4-1-2.5-1-1.1 0-17.2 3.9-35.7 8.6-18.6 4.8-37.3 9.6-41.6 10.8-5.9 1.6-7.7 2.5-7.7 3.9 0 0.9-1.3 3-2.9 4.7-1.6 1.7-3.7 3-4.5 3-0.9 0-2.9-1.3-4.6-3-1.6-1.7-3-3.9-3-5 0-1.7-1.3-2.3-7.7-3.9-4.3-1.1-23-5.8-41.5-10.5-18.6-4.8-34.7-8.6-35.8-8.6-1.1 0-2.2 0.4-2.5 1-0.3 0.6-0.3 1.6 0 2.3 0.2 0.6 2.2 1.6 4.2 2 2.1 0.5 4.6 1.3 5.6 1.8 0.9 0.5 1.7 1.5 1.7 2.2 0.1 0.6-0.5 1.8-1.2 2.5-1 0.9-2.5 1-6.3 0.1-3-0.6-6.1-2.1-7.8-3.7-1.8-1.8-2.7-3.7-2.7-5.7 0-1.8 0.9-3.9 2.2-5.2 1.3-1.3 3.7-2.6 5.3-3.1 2.5-0.7 3.3-1.7 5-6.5 1.8-5.2 2.3-5.7 5.5-6.2 2.5-0.4 9.6 1.1 24 5 13.4 3.7 20.8 5.3 21.5 4.6 0.7-0.6-5.9-4.3-19.3-10.8-15-7.2-20.2-10.3-20.2-11.5 0-1.1 0.8-1.8 2-1.8zm-8.4 24.3c-0.3 2-0.4 3.7-0.1 3.7 0.3 0 17.3 4.3 37.8 9.5 20.4 5.2 37.7 9.5 38.2 9.5 0.6 0 1.6-1.3 2.3-3 1-2.4 1-3.1 0-3.4-0.7-0.3-16.6-4.8-35.3-10-18.7-5.2-35.7-9.9-37.8-10.4-2.1-0.6-4-0.7-4.2-0.4-0.2 0.4-0.6 2.4-0.9 4.5zm83 25.2c-0.4 1.7-0.3 4.1 0.2 5.5l0.9 2.5c1.1-4.7 1-7.1 0.5-8.5l-0.9-2.5zm76.1-49.5c1.5 0 2.3 0.6 2.3 1.8 0 0.9-1.1 2.3-2.5 3-1.4 0.6-3.1 1.2-3.8 1.2-0.7 0.1-1.8-0.6-2.5-1.5-1-1.3-0.8-1.7 1.5-3 1.5-0.8 3.8-1.4 5-1.5zm-9.9 4c0.5 0 0.9 1.1 1 2.5 0.1 2-0.7 2.9-4.6 4.9-2.6 1.3-6.4 2.6-8.5 3-2.9 0.5-3.8 0.3-3.9-0.9-0.1-0.8 1.7-2.3 4-3.5 2.3-1.1 4.7-1.9 5.4-1.9 0.7 0.1 2.3 0.1 3.5 0 1.6-0.1 2.3-0.7 2.3-2.1 0-1.1 0.4-2 0.8-2zm-138.8 40c1.1 0 7 1.3 13.2 2.9 6.2 1.6 18.5 4.8 27.3 7.1 8.8 2.2 16.8 4.3 17.7 4.5 1.4 0.4 1.7 1.4 1.5 4.5-0.1 2.2-0.3 4-0.5 4-0.1 0-1-0.9-2-2q-1.7-2.1-13.2-5.1c-6.3-1.6-17.8-4.5-25.5-6.5-7.7-1.9-15.5-4-17.3-4.5-2.2-0.6-3.2-1.5-3.2-2.9q0-2 2-2zm63.2 20.5c0.5 0.3 0.9 1.5 0.9 2.6-0.1 1.8 0.6 1.9 9.4 1.9 8.8 0 9.5-0.1 9.5-2 0-1.1 0.4-2.2 1-2.5 0.5-0.3 1 0.6 1 2 0 1.4 0 2.8 0.1 3.3 0.1 0.4-1.6 1.7-3.7 2.9-2.2 1.2-5.7 2.1-7.9 2.1-2.2 0-5.8-0.9-8-2.1-2.2-1.2-3.9-2.6-3.8-3 0.2-0.4 0.3-1.9 0.4-3.3 0-1.4 0.5-2.2 1.1-1.9z"/>
			<path id="Path 1" class="s1" d="m96 26.6c-3 1.4-7.4 4.1-9.8 6-2.3 1.9-4.6 4.2-5.1 5.1-0.7 1.5-0.4 1.8 1.7 1.9 1.8 0.1 4.5-1.2 7.7-3.7 2.8-2.1 7.3-4.7 10-5.8 2.8-1 5-2.5 5-3.2 0-0.8-0.6-1.3-1.2-1.2-0.7 0.2-1.3-0.2-1.3-0.7 0-0.6-0.3-1-0.7-0.9-0.5 0-3.3 1.1-6.3 2.5zm30-0.3c-0.7 1.8-0.3 2.4 2.1 3.4 2.1 1 2.7 1.8 2.3 3-0.5 1.5-0.3 1.6 1.2 0.9 1.1-0.5 3.9-0.8 6.4-0.8l4.5 0.2c-4.7-3.8-8.2-5.8-10.8-6.9l-4.9-2zm-18.4 0.7c-0.3 0.5 0 1.1 0.7 1.3q1.2 0.3-1.4 3.7c-1.4 1.9-2.9 4-3.2 4.7-0.5 0.9 0.3 1.4 2.3 1.5 2.7 0.3 3.3-0.3 5.8-5 1.7-3.2 3.4-5.2 4.5-5.2 0.9 0 1.7-0.5 1.7-1 0-0.6-1.3-1-3-1-1.6 0-3 0.5-2.9 1 0 0.7-0.6 0.7-2 0q-2-1-2.5 0zm12 0c-0.3 0.5 0.5 1 1.9 1 1.4 0 2.3-0.5 2-1-0.3-0.6-1.1-1-1.9-1-0.8 0-1.7 0.4-2 1zm-16.7 13.7c-0.1 0.4 0 1.7 0.1 2.8 0.1 1.1 1 3 1.9 4.3 1.5 2.2 1.5 2.4-1.2 5-2.8 2.7-2.8 2.7-0.9 5.2l1.9 2.5c5.7-7.9 6.3-9.7 5.9-11.8-0.3-1.5-1.6-4.1-2.8-5.7-1.3-1.7-2.9-3-3.5-3-0.7 0-1.3 0.3-1.4 0.7zm-23.4 1.4c1.4 0.8 2.3 0.8 3 0 0.6-0.8 0-1.1-2-1.1-2.7 0-2.8 0.1-1 1.1zm48.5 2.9c0 1.6 0.2 3.7 0.5 4.5 0.4 1.2 1.1 1.3 3.5 0.5 1.7-0.6 3-1.5 3-2 0-0.6-1.2-2.2-2.7-3.5-1.6-1.4-3.1-2.6-3.5-2.5-0.5 0-0.8 1.3-0.8 3zm27 17.2c-0.1 0.2-0.6 3.8-1.3 8.1l-1.2 7.7c4.8-0.5 5.1-1.1 5.6-6 0.3-3 0.5-6.5 0.4-7.8-0.1-1.4-0.8-2.2-1.8-2.2-0.9 0-1.7 0.1-1.7 0.2zm-37 4c-2.8 0.9-3.4 1.5-3.2 3.4 0.2 1.9 0.7 2.3 2.5 1.9 1.2-0.3 2.5-0.5 3-0.5 0.4 0 0.5-0.5 0.2-1-0.3-0.6 0.2-1.2 1-1.5 0.8-0.3 1.5-1.2 1.5-2 0-0.8-0.3-1.5-0.7-1.4-0.5 0-2.4 0.6-4.3 1.1zm-47 7.1c0 1.7 0.5 3.9 1 4.7 0.7 1.2 1.2 1.2 2.2 0.3 1.1-1 0.9-1.7-0.7-3.4-1.7-1.7-1.8-2.2-0.5-2.8 1.3-0.7 1.2-0.9-0.3-1.5-1.5-0.4-1.8 0-1.7 2.7zm2.4 10.2c0.3 0.8 0.6 1.7 0.6 2 0 0.3 1.4 0.5 3 0.5 1.7 0 2.8-0.5 2.5-1-0.3-0.6-1.4-1-2.5-1-1.1 0-2-0.5-2-1 0-0.6-0.5-1-1.1-1-0.7 0-0.9 0.6-0.5 1.5zm57.1 2.2c-0.4 0.3-0.7 1.2-0.7 2 0.1 0.7 0.7 1.2 1.3 1 0.7-0.1 1.3-1 1.3-2 0.1-0.9-0.1-1.7-0.4-1.7-0.4 0-1 0.3-1.5 0.7zm-65.2 66.6c-0.7 0.8-0.5 1.6 0.8 2.4 1.6 1.1 1.9 1 2-0.7 0.1-1-0.3-2.1-0.8-2.4-0.6-0.2-1.4 0.1-2 0.7zm89 2.7c-2.9 2.2-5.1 4.3-4.8 4.7 0.2 0.4 1.2 0.1 2-0.7 1.1-1.1 1.6-1.1 1.6-0.3-0.1 0.7 0.6 1.3 1.4 1.3 0.8 0 3.5-1.5 5.8-3.3 2.4-1.8 4.2-3.8 4-4.5-0.1-0.7-1.3-1.2-2.5-1.2-1.3 0-4.7 1.8-7.5 4zm-108.7 0c-0.3 1.1-0.1 2 0.4 2 0.6 0 1.2-0.9 1.5-2 0.3-1.1 0.1-2-0.4-2-0.5 0-1.2 0.9-1.5 2zm135.1-0.7c-0.2 0.6-0.1 1.9 0.2 2.9 0.5 1.4 1 1.4 2.8 0.5l2.1-1.2c-4-3-4.7-3.1-5.1-2.2zm-111.2 0.4c-0.4 0.3-0.8 1.1-0.7 1.7 0.1 0.6 1.1 1.6 2.2 2.3 1.6 1 2.5 1 4.6 0l2.5-1.2c-3.6-2.7-5.3-3.5-6.2-3.5-0.8 0-1.9 0.3-2.4 0.7zm105.7 1.6c-1.2 0.6-2 1.4-1.8 1.7 0.3 0.3 1.7 0.4 3.1 0.2 1.4-0.1 2.5-0.8 2.5-1.7 0-0.8-0.3-1.5-0.7-1.5-0.5 0-1.8 0.6-3.1 1.3zm-14.2 6.3c-1.1 0.3-1.3 1.1-0.7 2.9 0.4 1.4 1.3 2.5 2 2.4 0.6 0 2.8-0.9 4.7-2l3.5-2c-5.7 1-6.5 0.7-6.5-0.4 0-0.8-0.3-1.5-0.7-1.4-0.5 0-1.5 0.2-2.3 0.5zm-132.4 1.4c-0.3 0.5 0 1 0.7 1 0.6 0 1.9-0.5 2.7-1 1.2-0.8 1.1-1-0.7-1-1.2 0-2.4 0.4-2.7 1zm139.9 7c-1.6 0.4-2.5 0.8-2 0.9 0.6 0.2 1.8 0.4 2.8 0.7 0.9 0.2 1.7-0.1 1.7-0.6 0-0.6 0.6-0.8 1.3-0.6 0.6 0.2 1.9 0 2.7-0.5 1.2-0.7 0.9-0.9-1-0.8-1.4 0.1-3.8 0.5-5.5 0.9zm-67.6 41c-0.1 1.4-0.2 3.3-0.3 4.4 0 1.1 0.5 2.1 1.2 2.3 0.8 0.2 1.2-0.8 1.2-3 0-1.8-0.5-3.9-1-4.7-0.8-1.2-1-1-1.1 1zm25.8-0.8c-0.4 1-0.7 3.1-0.7 4.8 0 1.7 0.5 2.9 1.1 2.7 0.7-0.1 1.3-0.9 1.4-1.7 0.1-0.8-0.1-2.9-0.5-4.5-0.4-2.4-0.7-2.7-1.3-1.3zm-21.5 6.2q-0.2 1.6 2.1 1.6c1.2 0 2-0.1 1.7-0.3-0.3-0.1-1.2-0.9-2-1.6-1.3-1.2-1.6-1.1-1.8 0.3zm16.8 0.1c-1.4 1.3-1.3 1.5 0.2 1.5 1 0 1.8-0.7 1.8-1.5 0-0.8-0.1-1.5-0.3-1.5-0.1 0-0.9 0.7-1.7 1.5z"/>
			<path id="Path 2" fill-rule="evenodd" class="s1" d="m187.8 33.2c1.9 0.2 3.3 1.4 4.9 4.3 1.3 2.3 4.2 5.2 6.8 6.7 2.6 1.6 4.5 3.5 4.5 4.5 0 1-0.4 2.3-0.8 2.8-0.4 0.6-1.9 1.8-3.5 2.8-1.5 0.9-2.9 1.7-3.2 1.7-0.3 0-1.2-0.7-2-1.5-1.3-1.3-1.6-1.2-2 1-0.3 1.4-1.2 2.5-2 2.5-1.3 0-1.3-0.3 0-3 0.8-1.7 2.7-3.6 7-5.8l-3-1.4c-1.7-0.9-4-3-7.3-8.3l-1.6 3.2c-0.9 1.8-3 4-4.6 4.8-1.7 0.8-3 1.8-3 2.2 0.1 0.5 0.8 1.3 1.8 2 1.5 1.1 1.5 1.2-0.6 1.3-1.3 0-2.2-0.6-2.2-1.5 0-0.8-0.7-1.5-1.5-1.5-0.9 0-1.5-0.9-1.5-2.5 0-1.8 1-3.1 3.5-4.5 1.9-1.1 3.5-2.3 3.5-2.8 0-0.4 0.9-2.2 2.1-4 1.6-2.6 2.6-3.3 4.7-3zm-147.1 47.8c0.2 0 1 0.3 1.9 0.8 0.9 0.4 2.5 2.4 3.5 4.5 1.2 2.3 3.4 4.5 6 5.9 2.3 1.2 4.3 2.9 4.5 3.7 0.3 0.9 0.1 2.5-0.3 3.5-0.5 1-2.5 2.7-4.6 3.7-2.3 1.2-4.4 3.3-5.6 5.6-1 2.1-2.6 4.1-3.5 4.5-0.9 0.5-2.4 0.4-3.4-0.1-0.9-0.4-2.7-2.5-4-4.5-1.2-2-4-4.7-6.2-6.1-3.3-2-4-3-3.8-5.2 0.2-2 1.3-3.3 4.3-5 2.2-1.2 4.9-3.8 5.9-5.7 1-1.9 2.6-4 3.5-4.5 0.9-0.6 1.7-1.1 1.8-1.1zm-1.6 10.5c-0.6 1.4-2.6 3.4-4.4 4.4l-3.2 1.9c5 2.5 7.1 4.3 7.7 5.6l1.3 2.4 8-8.3-8.3-8.4zm76 40.4c1.1 0 2.9 1.6 4.4 3.8 1.3 2.1 4.4 5.1 6.7 6.8 2.4 1.7 4.5 4 4.6 5 0.3 1.4-1.1 3.1-4.7 5.7-2.8 2.1-5.6 4.9-6.3 6.3-1 2-2 2.5-5 2.5-3.2 0-4-0.5-5.3-3.1-0.8-1.6-2.6-3.6-4-4.5-1.4-0.8-2.5-2.1-2.5-3 0-0.8-0.9-1.5-2-1.5-1.5 0-2-0.6-2-2.5 0-1.9 0.9-2.9 4-4.5 2.2-1.1 4.9-3.4 6-5.2 1-1.8 2.4-3.8 3-4.5 0.6-0.7 2-1.3 3.1-1.3zm-6.1 13.8c-1.6 1-3 2-3 2.2 0 0.3 1 1 2.2 1.5 1.3 0.6 3.3 2.5 4.5 4.3l2.3 3.2c2-4 4.1-6.1 6-7.2l3.5-2c-5.2-2.5-7.4-4.5-8.1-6-0.8-1.5-1.6-2.8-1.8-2.8-0.2 0-0.8 1.2-1.5 2.5-0.6 1.4-2.4 3.3-4.1 4.3z"/>
			<path id="Path 3" class="s1" d="m172.2 46c-0.7 0.8-1.1 2.6-1 4 0.2 1.7 1.5 3.1 4.6 4.7 2.8 1.5 4.9 3.6 6.2 6.3 1.1 2.2 2.8 4.2 3.8 4.5 0.9 0.3 2.4 0.3 3.2 0 0.8-0.3 2.7-2.5 4.3-5 2.4-4 2.5-4.7 1.2-6-1.3-1.3-1.6-1.2-2 1-0.4 1.9-1.1 2.4-2.8 2.3-1.2-0.2-3.7-1.9-5.5-3.8-1.7-1.9-3.2-2.9-3.2-2.3 0 0.7-0.9 1.3-2 1.3-1.1 0-2-0.7-2-1.5 0-0.8-0.7-1.5-1.5-1.5-0.9 0-1.6-1.1-1.8-2.7-0.2-2.3-0.4-2.5-1.5-1.3zm-72.2 105c0 0.6 0.7 1.2 1.5 1.5 0.9 0.3 1.5-0.1 1.5-1 0-0.8-0.7-1.5-1.5-1.5-0.8 0-1.5 0.4-1.5 1zm12 12c0.8 0.5 2.3 1 3.3 1 0.9 0 1.9-0.4 2.2-1 0.3-0.6-1.1-1-3.2-1-2.8 0-3.4 0.3-2.3 1z"/>
			<path id="Path 4" class="s1" d="m187.5 59.7c-1.1 0.2-1.9 0.9-1.7 1.4 0.1 0.5 1 0.6 1.9 0.3 1-0.4 2.4-0.7 3-0.8 0.7 0 1.3-0.4 1.3-0.9 0-0.4-0.6-0.6-1.3-0.6-0.6 0.1-2.1 0.3-3.2 0.6z"/>
		</g>
	</g>
</svg>